name Walk5.mot
datacolumns 19
datarows 12
range 2.65000000 2.70500000
endheader

                time	   L_ground_force_vx	   L_ground_force_vy	   L_ground_force_vz	   L_ground_force_px	   L_ground_force_py	   L_ground_force_pz	   R_ground_force_vx	   R_ground_force_vy	   R_ground_force_vz	   R_ground_force_px	   R_ground_force_py	   R_ground_force_pz	   L_ground_torque_x	   L_ground_torque_y	   L_ground_torque_z	   R_ground_torque_x	   R_ground_torque_y	   R_ground_torque_z	
          2.65000000	          0.09493997	          0.29439178	         -0.00460687	         -0.00031034	          0.00000000	         -0.00003273	        -25.38995856	        709.40231006	        -42.22708024	          0.18558109	          0.00000000	          0.09206568	          0.00000000	          0.00087845	          0.00000000	          0.00000000	          5.64739626	          0.00000000	
          2.65500000	          0.08483293	          0.24684237	         -0.00556964	         -0.00037609	          0.00000000	         -0.00004122	        -23.82794853	        705.34423246	        -42.46012740	          0.18695171	          0.00000000	          0.09228323	          0.00000000	          0.00082704	          0.00000000	          0.00000000	          5.47165098	          0.00000000	
          2.66000000	          0.07164222	          0.19682761	         -0.00574655	         -0.00038851	          0.00000000	         -0.00004340	        -22.29697975	        701.04710517	        -42.70388153	          0.18835271	          0.00000000	          0.09249556	          0.00000000	          0.00072865	          0.00000000	          0.00000000	          5.30149935	          0.00000000	
          2.66500000	          0.05751724	          0.14918743	         -0.00540552	         -0.00036575	          0.00000000	         -0.00004137	        -20.80039698	        696.54709897	        -42.93628876	          0.18978218	          0.00000000	          0.09270178	          0.00000000	          0.00060794	          0.00000000	          0.00000000	          5.13631774	          0.00000000	
          2.67000000	          0.04391025	          0.10683778	         -0.00475931	         -0.00032223	          0.00000000	         -0.00003680	        -19.34037758	        691.89199364	        -43.13266074	          0.19123554	          0.00000000	          0.09290061	          0.00000000	          0.00048244	          0.00000000	          0.00000000	          4.97488597	          0.00000000	
          2.67500000	          0.03171158	          0.07123020	         -0.00396851	         -0.00026883	          0.00000000	         -0.00003095	        -17.91745025	        687.14260571	        -43.26952408	          0.19270732	          0.00000000	          0.09309186	          0.00000000	          0.00036381	          0.00000000	          0.00000000	          4.81565556	          0.00000000	
          2.68000000	          0.02138080	          0.04276230	         -0.00314752	         -0.00021333	          0.00000000	         -0.00002476	        -16.53074861	        682.37075384	        -43.32764610	          0.19419431	          0.00000000	          0.09327702	          0.00000000	          0.00025896	          0.00000000	          0.00000000	          4.65704973	          0.00000000	
          2.68500000	          0.01306492	          0.02112440	         -0.00237211	         -0.00016087	          0.00000000	         -0.00001883	        -15.17803875	        677.65044156	        -43.29426778	          0.19569359	          0.00000000	          0.09345771	          0.00000000	          0.00017124	          0.00000000	          0.00000000	          4.49775311	          0.00000000	
          2.69000000	          0.00669882	          0.00557775	         -0.00168724	         -0.00011450	          0.00000000	         -0.00001353	        -13.85610070	        673.05175755	        -43.16444802	          0.19720232	          0.00000000	          0.09363430	          0.00000000	          0.00010145	          0.00000000	          0.00000000	          4.33684735	          0.00000000	
          2.69500000	          0.00208657	         -0.00483314	         -0.00111461	         -0.00007571	          0.00000000	         -0.00000907	        -12.56171913	        668.63982432	        -42.94150304	          0.19871907	          0.00000000	          0.09380694	          0.00000000	          0.00004866	          0.00000000	          0.00000000	          4.17364094	          0.00000000	
          2.70000000	         -0.00103620	         -0.01112721	         -0.00065924	         -0.00004485	          0.00000000	         -0.00000549	        -11.29194972	        664.47186120	        -42.63584479	          0.20024343	          0.00000000	          0.09397682	          0.00000000	          0.00001097	          0.00000000	          0.00000000	          4.00762440	          0.00000000	
          2.70500000	         -0.00295682	         -0.01428344	         -0.00031509	         -0.00002151	          0.00000000	         -0.00000276	        -10.04403926	        660.59243624	        -42.26335037	          0.20177593	          0.00000000	          0.09414604	          0.00000000	         -0.00001407	          0.00000000	          0.00000000	          3.83865226	          0.00000000	
